<svg width="253" height="253" viewBox="0 0 253 253" fill="none" xmlns="http://www.w3.org/2000/svg">
<g filter="url(#filter0_ii_1_360)">
<mask id="mask0_1_360" style="mask-type:luminance" maskUnits="userSpaceOnUse" x="3" y="3" width="246" height="246">
<path d="M3.91998 23.52C3.91998 12.6952 12.6952 3.92001 23.52 3.92001H229.32C240.145 3.92001 248.92 12.6952 248.92 23.52V229.32C248.92 240.145 240.145 248.92 229.32 248.92H23.52C12.6952 248.92 3.91998 240.145 3.91998 229.32V23.52Z" fill="white"/>
</mask>
<g mask="url(#mask0_1_360)">
<path d="M3.91998 23.52C3.91998 12.6952 12.6952 3.92001 23.52 3.92001H229.32C240.145 3.92001 248.92 12.6952 248.92 23.52V229.32C248.92 240.145 240.145 248.92 229.32 248.92H23.52C12.6952 248.92 3.91998 240.145 3.91998 229.32V23.52Z" fill="#0D0D0D"/>
<path d="M3.91998 23.395C3.91998 12.5702 12.6952 3.79501 23.52 3.79501H229.32C240.145 3.79501 248.92 12.5702 248.92 23.395V229.195C248.92 240.02 240.145 248.795 229.32 248.795H23.52C12.6952 248.795 3.91998 240.02 3.91998 229.195V23.395Z" fill="white" fill-opacity="0.03"/>
</g>
</g>
<defs>
<filter id="filter0_ii_1_360" x="3.91998" y="3.92001" width="245" height="245" filterUnits="userSpaceOnUse" color-interpolation-filters="sRGB">
<feFlood flood-opacity="0" result="BackgroundImageFix"/>
<feBlend mode="normal" in="SourceGraphic" in2="BackgroundImageFix" result="shape"/>
<feColorMatrix in="SourceAlpha" type="matrix" values="0 0 0 0 0 0 0 0 0 0 0 0 0 0 0 0 0 0 127 0" result="hardAlpha"/>
<feOffset/>
<feGaussianBlur stdDeviation="2"/>
<feComposite in2="hardAlpha" operator="arithmetic" k2="-1" k3="1"/>
<feColorMatrix type="matrix" values="0 0 0 0 0.0901961 0 0 0 0 0.0901961 0 0 0 0 0.0901961 0 0 0 1 0"/>
<feBlend mode="normal" in2="shape" result="effect1_innerShadow_1_360"/>
<feColorMatrix in="SourceAlpha" type="matrix" values="0 0 0 0 0 0 0 0 0 0 0 0 0 0 0 0 0 0 127 0" result="hardAlpha"/>
<feOffset/>
<feGaussianBlur stdDeviation="2"/>
<feComposite in2="hardAlpha" operator="arithmetic" k2="-1" k3="1"/>
<feColorMatrix type="matrix" values="0 0 0 0 0.933333 0 0 0 0 0.92549 0 0 0 0 0.917647 0 0 0 1 0"/>
<feBlend mode="normal" in2="effect1_innerShadow_1_360" result="effect2_innerShadow_1_360"/>
</filter>
</defs>
</svg>
